<svg id="visual" viewBox="0 0 960 540" width="960" height="540" xmlns="http://www.w3.org/2000/svg" xmlns:xlink="http://www.w3.org/1999/xlink" version="1.1"><rect x="0" y="0" width="960" height="540" fill="#151617"></rect><g transform="translate(930.4112797658798 92.15244283241302)"><path d="M242 -337.5C314.8 -280.3 375.7 -211.1 389.6 -134.5C403.6 -58 370.6 25.9 322.9 84C275.2 142.2 212.9 174.6 156.6 178.9C100.3 183.1 50.2 159 -17.1 182.6C-84.4 206.2 -168.9 277.5 -230.7 275C-292.5 272.6 -331.7 196.6 -333.6 124.1C-335.4 51.7 -299.9 -17.1 -291 -110C-282.1 -202.9 -299.7 -319.9 -255.7 -386.4C-211.6 -452.9 -105.8 -469 -10.6 -454.4C84.6 -439.8 169.3 -394.7 242 -337.5" fill="#fbae3c"></path></g></svg>