<svg id="visual" viewBox="0 0 960 540" width="960" height="540" xmlns="http://www.w3.org/2000/svg" xmlns:xlink="http://www.w3.org/1999/xlink" version="1.1"><rect x="0" y="0" width="960" height="540" fill="#151617"></rect><defs><linearGradient id="grad1_0" x1="43.8%" y1="0%" x2="100%" y2="100%"><stop offset="14.444444444444446%" stop-color="#151617" stop-opacity="1"></stop><stop offset="85.55555555555554%" stop-color="#151617" stop-opacity="1"></stop></linearGradient></defs><defs><linearGradient id="grad2_0" x1="0%" y1="0%" x2="56.3%" y2="100%"><stop offset="14.444444444444446%" stop-color="#151617" stop-opacity="1"></stop><stop offset="85.55555555555554%" stop-color="#151617" stop-opacity="1"></stop></linearGradient></defs><g transform="translate(960, 0)"><path d="M0 189C-33.1 184.1 -66.2 179.2 -94.5 163.7C-122.8 148.2 -146.1 122 -161.1 93C-176 64 -182.5 32 -189 0L0 0Z" fill="#fbae3c"></path></g><g transform="translate(0, 540)"><path d="M0 -189C33.8 -184.5 67.6 -180 94.5 -163.7C121.4 -147.4 141.3 -119.2 155.9 -90C170.5 -60.8 179.7 -30.4 189 0L0 0Z" fill="#fbae3c"></path></g></svg>