<svg id="SvgjsSvg1001" width="288" height="288" xmlns="http://www.w3.org/2000/svg" version="1.1" xmlns:xlink="http://www.w3.org/1999/xlink" xmlns:svgjs="http://svgjs.com/svgjs"><defs id="SvgjsDefs1002"></defs><g id="SvgjsG1008" transform="matrix(1,0,0,1,0,0)"><svg xmlns="http://www.w3.org/2000/svg" width="288" height="288" viewBox="-80 -20 640 640"><path d="M176 140c0-5.523438-4.476562-10-10-10s-10 4.476562-10 10v70h-20v240h20v60c0 5.523438 4.476562 10 10 10s10-4.476562 10-10v-60h20v-240h-20zm0 0M316 100c0-5.523438-4.476562-10-10-10s-10 4.476562-10 10v70h-20v240h20v60c0 5.523438 4.476562 10 10 10s10-4.476562 10-10v-60h20v-240h-20zm0 0M36 10c0-5.523438-4.476562-10-10-10s-10 4.476562-10 10v70h-20v240h20v60c0 5.523438 4.476562 10 10 10s10-4.476562 10-10v-60h20v-240h-20zm0 0M476 290h-20v-70c0-5.523438-4.476562-10-10-10s-10 4.476562-10 10v70h-20v240h20v60c0 5.523438 4.476562 10 10 10s10-4.476562 10-10v-60h20zm0 0" fill="#ffffff" class="color000 svgShape" data-darkreader-inline-fill="" style="--darkreader-inline-fill:#000000;"></path></svg></g></svg>