<svg height="640pt" viewBox="-80 -20 640 640" width="640pt" xmlns="http://www.w3.org/2000/svg"><path d="m176 140c0-5.523438-4.476562-10-10-10s-10 4.476562-10 10v70h-20v240h20v60c0 5.523438 4.476562 10 10 10s10-4.476562 10-10v-60h20v-240h-20zm0 0"/><path d="m316 100c0-5.523438-4.476562-10-10-10s-10 4.476562-10 10v70h-20v240h20v60c0 5.523438 4.476562 10 10 10s10-4.476562 10-10v-60h20v-240h-20zm0 0"/><path d="m36 10c0-5.523438-4.476562-10-10-10s-10 4.476562-10 10v70h-20v240h20v60c0 5.523438 4.476562 10 10 10s10-4.476562 10-10v-60h20v-240h-20zm0 0"/><path d="m476 290h-20v-70c0-5.523438-4.476562-10-10-10s-10 4.476562-10 10v70h-20v240h20v60c0 5.523438 4.476562 10 10 10s10-4.476562 10-10v-60h20zm0 0"/></svg>