<svg width="288" height="288" xmlns="http://www.w3.org/2000/svg" xmlns:xlink="http://www.w3.org/1999/xlink" xmlns:svgjs="http://svgjs.com/svgjs"><svg xmlns="http://www.w3.org/2000/svg" width="288" height="288" viewBox="-80 -20 640 640"><path d="M176 140c0-5.523-4.477-10-10-10s-10 4.477-10 10v70h-20v240h20v60c0 5.523 4.477 10 10 10s10-4.477 10-10v-60h20V210h-20zm140-40c0-5.523-4.477-10-10-10s-10 4.477-10 10v70h-20v240h20v60c0 5.523 4.477 10 10 10s10-4.477 10-10v-60h20V170h-20zM36 10c0-5.523-4.477-10-10-10S16 4.477 16 10v70H-4v240h20v60c0 5.523 4.477 10 10 10s10-4.477 10-10v-60h20V80H36zm440 280h-20v-70c0-5.523-4.477-10-10-10s-10 4.477-10 10v70h-20v240h20v60c0 5.523 4.477 10 10 10s10-4.477 10-10v-60h20zm0 0" fill="#fff" class="color000 svgShape" style="--darkreader-inline-fill:#000000"/></svg></svg>