<svg id="visual" viewBox="0 0 960 540" width="960" height="540" xmlns="http://www.w3.org/2000/svg" xmlns:xlink="http://www.w3.org/1999/xlink" version="1.1"><rect x="0" y="0" width="960" height="540" fill="#151617"></rect><g transform="translate(968.499077651929 14.996472672156017)"><path d="M138.8 -270.2C190.9 -210.3 251.8 -195.4 301.4 -157.9C351.1 -120.3 389.5 -60.2 387.7 -1.1C385.8 58 343.6 116 298.2 160.9C252.8 205.8 204.1 237.6 153.9 286.6C103.7 335.6 51.8 401.8 -3.6 408C-59 414.2 -118 360.4 -147.2 299.3C-176.5 238.1 -175.9 169.7 -229.4 118.6C-282.9 67.5 -390.5 33.8 -403.4 -7.5C-416.3 -48.7 -334.6 -97.3 -275.2 -138.2C-215.8 -179 -178.6 -212.1 -136.5 -277.7C-94.3 -343.4 -47.2 -441.7 -1.9 -438.4C43.3 -435.1 86.7 -330.1 138.8 -270.2" fill="#fbae3c"></path></g></svg>